<svg fill="none" xmlns="http://www.w3.org/2000/svg" viewBox="0 0 512 512"><path fill-rule="evenodd" clip-rule="evenodd" d="M428.757 474.176c4.608 0 8.32 3.691 8.32 8.256a8.297 8.297 0 01-8.32 8.235 8.303 8.303 0 01-8.32-8.235c0-4.565 3.734-8.256 8.32-8.256zM114.496 203.307c4.224 0 8.021 1.877 10.603 4.821a13.501 13.501 0 0115.146 4.821 11.97 11.97 0 0115.574 7.126 10.756 10.756 0 019.951-.421 10.748 10.748 0 016.027 7.93 9.816 9.816 0 0110.902 6.443 8.897 8.897 0 018.874-7.744c4.907 0 8.918 3.946 8.918 8.832a8.89 8.89 0 01-2.63 6.263 8.885 8.885 0 01-6.288 2.569 8.924 8.924 0 01-8.384-5.782 9.79 9.79 0 01-9.77 8.747 9.817 9.817 0 01-9.536-7.424 10.84 10.84 0 01-12.459-5.952 11.944 11.944 0 01-15.36-1.365 13.442 13.442 0 01-16.256-2.219 14.08 14.08 0 01-9.472.427 14.298 14.298 0 013.499 2.666 13.506 13.506 0 0115.36 4.182 11.965 11.965 0 0115.296 5.589 11.048 11.048 0 0114.593.716 11.042 11.042 0 012.793 4.468 9.876 9.876 0 0111.926 4.715 8.896 8.896 0 018.832-7.595c4.928 0 8.938 3.968 8.938 8.832a8.959 8.959 0 01-16.725 4.309 9.662 9.662 0 01-3.541 6.464 8.96 8.96 0 0112.522 8.086 8.74 8.74 0 01-1.813 5.333 7.766 7.766 0 0111.947 6.443 7.69 7.69 0 01-2.28 5.439 7.68 7.68 0 01-5.464 2.219 7.674 7.674 0 01-5.472-2.226 7.684 7.684 0 01-2.272-5.454c0-1.664.533-3.2 1.472-4.48a8.953 8.953 0 01-9.152.522 8.953 8.953 0 01-4.822-7.796c0-2.731 1.238-5.142 3.2-6.763a9.874 9.874 0 01-13.056-4.907 11.07 11.07 0 01-14.25-4.373 11.95 11.95 0 01-16.15-.085 13.438 13.438 0 01-15.85-1.28 14.364 14.364 0 01-8.854 1.28c.647.468 1.253.989 1.814 1.557a12.862 12.862 0 0115.061 2.688 11.944 11.944 0 0116.811 2.837 11.027 11.027 0 0114.175.853 11.04 11.04 0 012.785 4.267 9.883 9.883 0 019.225.819 9.871 9.871 0 014.492 8.099 9.595 9.595 0 01-1.707 5.482 8.872 8.872 0 0111.74 7.256 8.88 8.88 0 01-.881 5.118 7.77 7.77 0 017.74-.065 7.765 7.765 0 013.951 6.657 7.69 7.69 0 01-2.28 5.439 7.68 7.68 0 01-5.464 2.219 7.671 7.671 0 01-6.493-3.502 7.672 7.672 0 01-.547-7.356 8.968 8.968 0 01-9.079.358 8.965 8.965 0 01-4.724-7.761c0-1.749.512-3.371 1.408-4.757a9.879 9.879 0 01-12.352-4.907 11.051 11.051 0 01-13.995-2.645 11.949 11.949 0 01-15.786-.192 12.816 12.816 0 01-11.307 2.752 14.177 14.177 0 012.987 2.773 12.823 12.823 0 0117.386.725 11.051 11.051 0 0116.342 4.288 9.856 9.856 0 0114.144 8.747c0 .984-.151 1.963-.448 2.901a9.476 9.476 0 0111.513 7.096 9.474 9.474 0 01-.207 4.958 7.77 7.77 0 0111.734 6.528 7.681 7.681 0 01-7.723 7.658 7.682 7.682 0 01-6.054-2.887 7.682 7.682 0 01-1.477-6.542 9.534 9.534 0 01-14.698-10.325 9.906 9.906 0 01-6.137-.391 9.906 9.906 0 01-4.722-3.94 11.05 11.05 0 01-12.267-.299 12.776 12.776 0 01-2.602 2.027c3.84.171 7.189 2.347 9.002 5.461a9.837 9.837 0 0115.296 10.688 8.876 8.876 0 0111.094 9.814 7.76 7.76 0 0110.831 2.482 7.768 7.768 0 011.137 3.918 7.69 7.69 0 01-2.28 5.439 7.68 7.68 0 01-5.464 2.219 7.68 7.68 0 01-7.702-8.256 8.964 8.964 0 01-10.261.265 8.963 8.963 0 01-3.776-9.545 9.895 9.895 0 01-10.944-3.626 11.028 11.028 0 01-15.531-.555 13.039 13.039 0 01-1.13 1.6 13.14 13.14 0 018.234 6.955 10.734 10.734 0 0111.608-2.62 10.728 10.728 0 016.888 9.702v.299a9.163 9.163 0 017.439 2.022 9.171 9.171 0 013.271 6.981 9.182 9.182 0 01-2.71 6.488 9.167 9.167 0 01-6.506 2.664 9.176 9.176 0 01-9.174-8.107 10.814 10.814 0 01-12.01-4.395 13.127 13.127 0 01-9.899 5.398h-.128c.661.64 1.28 1.322 1.792 2.069a10.729 10.729 0 0116.537 1.435 10.737 10.737 0 011.874 5.946 10.728 10.728 0 01-18.411 7.382 13.118 13.118 0 01-7.104 5.056A12.863 12.863 0 01104 393.237a12.147 12.147 0 0111.471 3.3 12.14 12.14 0 013.1 11.527 12.243 12.243 0 0118.218 10.069v.214l.086-.214a12.198 12.198 0 0111.093-8.106 10.472 10.472 0 01-2.24-6.486 10.677 10.677 0 013.169-7.523 10.658 10.658 0 017.562-3.079 10.662 10.662 0 0110.709 10.602 10.642 10.642 0 01-9.621 10.539 11.942 11.942 0 01.106 15.893 12.84 12.84 0 011.707 15.531 15.75 15.75 0 015.291 5.611c.424-.8.924-1.557 1.493-2.262a12.006 12.006 0 01-4.112-14.02 11.994 11.994 0 012.875-4.326 11.386 11.386 0 01-3.691-8.427c0-5.973 4.608-10.88 10.517-11.435a10.497 10.497 0 011.622-15.68 9.147 9.147 0 01-6.784-8.81 9.173 9.173 0 019.216-9.11 9.186 9.186 0 016.505 2.642 9.163 9.163 0 012.732 6.468 9.063 9.063 0 01-3.285 6.976c4.928.96 8.64 5.248 8.64 10.41 0 5.355-4.054 9.814-9.28 10.496a11.373 11.373 0 01.192 15.894 11.996 11.996 0 012.688 15.296 14.107 14.107 0 015.938 5.875 14.106 14.106 0 011.571 8.205l.149.085a12.549 12.549 0 013.243-9.877 11.524 11.524 0 01-8.085-10.944c0-3.03 1.194-5.782 3.136-7.83a10.836 10.836 0 016.4-19.541 9.662 9.662 0 010-15.915h-.278a9.174 9.174 0 01-8.52-5.618 9.172 9.172 0 01-.717-3.512 9.163 9.163 0 012.732-6.468 9.173 9.173 0 016.505-2.642 9.091 9.091 0 018.833 6.242 9.083 9.083 0 01-3.393 10.27l.512-.042c5.419 0 9.814 4.352 9.814 9.728 0 5.162-4.054 9.386-9.174 9.685a10.85 10.85 0 013.265 3.251 10.85 10.85 0 011.313 8.908 10.857 10.857 0 01-2.188 4.054 11.44 11.44 0 014.584 12.41 11.432 11.432 0 01-2.11 4.166 12.694 12.694 0 019.6 13.782 14.718 14.718 0 019.003 13.525c0 8.128-6.656 14.72-14.891 14.72a14.892 14.892 0 01-13.674-8.96 16.361 16.361 0 01-15.19 10.133 16.404 16.404 0 01-12.8-6.101 17.008 17.008 0 01-13.973 7.275 17.007 17.007 0 01-14.144-7.467 17.607 17.607 0 01-14.443 7.467 17.607 17.607 0 01-13.973-6.87 17.593 17.593 0 01-13.995 6.87 17.581 17.581 0 01-16-10.176 17.901 17.901 0 01-11.669 4.288 17.775 17.775 0 01-17.835-16.64 17.766 17.766 0 01-14.108-4.142 17.77 17.77 0 01-6.158-13.352c0-3.477 1.024-6.72 2.773-9.45a15.385 15.385 0 01-14.699-15.318c0-6.357 3.904-11.797 9.472-14.122a15.3 15.3 0 01-7.652-17.797 15.299 15.299 0 0115.93-11.025 14.608 14.608 0 01-5.248-11.242 14.805 14.805 0 0115.978-14.678 14.607 14.607 0 01-5.269-11.221 14.802 14.802 0 019.918-13.909c1.917-.67 3.95-.939 5.975-.79a14.607 14.607 0 01-4.586-10.624 14.81 14.81 0 015.697-11.612 14.805 14.805 0 0112.65-2.702 14.082 14.082 0 01-.547-24.271 14.08 14.08 0 019.357-1.969 14.34 14.34 0 01-5.12-10.966 14.508 14.508 0 0117.152-14.208 14.074 14.074 0 01-5.845-11.413 14.205 14.205 0 0111.96-14.008 14.211 14.211 0 016.6.504 13.803 13.803 0 01-1.833-23.144 13.78 13.78 0 018.574-2.797zm290.773 268.544c4.416 0 8.022 3.562 8.022 7.936a7.997 7.997 0 01-2.374 5.644 7.991 7.991 0 01-5.669 2.313 8.002 8.002 0 01-8.021-7.957c0-4.374 3.605-7.936 8.042-7.936zm-180.97-77.739c5.269 0 9.536 4.224 9.536 9.429a9.455 9.455 0 01-8.107 9.302 9.981 9.981 0 011.643 15.36 10.896 10.896 0 017.491 11.934 10.906 10.906 0 01-1.859 4.706 11.224 11.224 0 018.048 5.213 11.203 11.203 0 011.61 4.643 11.203 11.203 0 01-.528 4.885c6.4.853 11.328 6.293 11.328 12.843a13.006 13.006 0 01-13.077 12.97 13.005 13.005 0 01-11.049-6.049 13.016 13.016 0 01-.748-12.575 11.222 11.222 0 01-6.272-17.429 10.943 10.943 0 01-9.323-10.773 10.75 10.75 0 013.563-8 10.021 10.021 0 01-6.528-9.387c0-5.077 3.84-9.301 8.832-9.92a9.381 9.381 0 01-3.677-10.605 9.39 9.39 0 019.117-6.547zm227.093 74.795c3.925 0 7.125 3.157 7.125 7.04 0 3.925-3.2 7.082-7.125 7.082a7.093 7.093 0 01-5.036-2.05 7.11 7.11 0 01-2.111-5.011c0-3.904 3.2-7.061 7.147-7.061zM335.616 57.813c6.571 0 11.904 5.291 11.904 11.776a11.85 11.85 0 01-4.484 9.267 11.835 11.835 0 01-10.044 2.253 11.534 11.534 0 01-8.664 13.55 11.542 11.542 0 01-5.864-.152 11.543 11.543 0 01-12.8 16.106 11.35 11.35 0 011.963 6.4 11.546 11.546 0 01-8.916 11.188 11.55 11.55 0 01-5.1.034 10.754 10.754 0 01-.064 12.949 11.64 11.64 0 017.146-1.429 11.248 11.248 0 016.43-15.358c1.976-.7 4.109-.834 6.157-.386a11.239 11.239 0 011.187-11.752 11.24 11.24 0 0111.037-4.206 11.24 11.24 0 0113.547-13.44 10.872 10.872 0 012.472-8.85 10.88 10.88 0 018.365-3.8c6.08 0 11.029 4.885 11.029 10.88a10.945 10.945 0 01-13.29 10.666 11.247 11.247 0 01-3.182 9.995 11.253 11.253 0 01-10.045 3.019 11.239 11.239 0 01-2.979 10.42 11.249 11.249 0 01-10.397 3.062 10.866 10.866 0 011.195 4.95 11.234 11.234 0 01-3.765 8.359 11.241 11.241 0 01-8.737 2.777 11.303 11.303 0 011.195 4.842 11.631 11.631 0 0111.819-5.205 11.527 11.527 0 01-.253-5.708 11.549 11.549 0 017.184-8.425 11.55 11.55 0 015.677-.651 17.132 17.132 0 1125.856-22.485c6.101 0 11.029 4.885 11.029 10.901a10.95 10.95 0 01-4.76 9.019 10.942 10.942 0 01-10.131 1.178v.406a10.935 10.935 0 01-3.612 8.07 10.95 10.95 0 01-8.398 2.767 11.463 11.463 0 01-2.765 9.144 11.455 11.455 0 01-8.734 3.869 11.714 11.714 0 01-2.005-.17 11.55 11.55 0 01-1.726 10.159 11.537 11.537 0 01-9.154 4.731h-.107l.064.342c.122.804.158 1.62.107 2.432a11.626 11.626 0 0110.858-4.438 11.446 11.446 0 012.731-9.172 11.442 11.442 0 018.747-3.884c.938 0 1.834.107 2.688.299a10.934 10.934 0 014.766-9.032 10.95 10.95 0 0110.146-1.165 10.96 10.96 0 0110.986-10.134c6.08 0 11.008 4.886 11.008 10.88a10.945 10.945 0 01-14.912 10.219 10.952 10.952 0 01-4.306 7.902 10.964 10.964 0 01-8.771 2.018v.491a11.541 11.541 0 01-13.184 11.37 11.439 11.439 0 01-6.443 11.926 12.29 12.29 0 015.398-.534 11.857 11.857 0 0111.164-10.718c1.88-.102 3.757.245 5.476 1.012a10.971 10.971 0 015.034-8.699 10.96 10.96 0 0110.006-.944 10.391 10.391 0 0110.24-8.427c5.76 0 10.41 4.63 10.41 10.304a10.36 10.36 0 01-4.371 8.439 10.379 10.379 0 01-4.543 1.808 10.383 10.383 0 01-4.867-.476 10.96 10.96 0 01-9.954 9.374 10.974 10.974 0 01-4.83-.691v.106a11.836 11.836 0 01-8.221 11.236c-1.58.508-3.249.677-4.899.498a12.036 12.036 0 01-5.248 9.088 12.027 12.027 0 015.931.341 11.255 11.255 0 015.764-8.617 11.26 11.26 0 0110.364-.258 10.389 10.389 0 0116.064-7.04 10.387 10.387 0 0110.304-8.789c5.76 0 10.41 4.629 10.41 10.304a10.455 10.455 0 01-5.559 9.077 10.451 10.451 0 01-10.633-.501 10.383 10.383 0 01-5.152 7.47 10.384 10.384 0 01-9.056.573 11.264 11.264 0 01-14.272 9.792 11.86 11.86 0 01-13.653 10.88 12.54 12.54 0 01-3.349 8.362h.064c.949 0 1.894.114 2.816.342a11.566 11.566 0 0110.887-9.801 11.565 11.565 0 015.155.947 10.674 10.674 0 016.078-8.218 10.665 10.665 0 0110.2.666 10.684 10.684 0 0112.056-7.999c1.753.279 3.409.99 4.818 2.069a10.113 10.113 0 019.6-6.87c5.59 0 10.134 4.48 10.134 10.027a10.162 10.162 0 01-5.482 8.874 10.152 10.152 0 01-10.412-.639 10.709 10.709 0 01-15.978 6.058 10.686 10.686 0 01-13.995 7.467 11.558 11.558 0 01-4.807 8.493 11.567 11.567 0 01-9.593 1.79 11.39 11.39 0 01-3.115 6.25c1.506.105 2.98.481 4.352 1.11a11.011 11.011 0 0111.606-7.598c1.666.17 3.271.719 4.693 1.603a10.457 10.457 0 016.666-8.034 10.454 10.454 0 0110.294 1.741 10.116 10.116 0 017.468-6.925 10.103 10.103 0 019.705 3.085 10.119 10.119 0 019.771-7.382c5.589 0 10.133 4.48 10.133 10.006a10.129 10.129 0 01-6.508 9.354 10.131 10.131 0 01-11.092-2.613 10.108 10.108 0 01-11.619 7.272 10.114 10.114 0 01-4.509-2.088 10.41 10.41 0 01-15.146 6.187 10.969 10.969 0 01-14.464 9.002 12.331 12.331 0 01-4.16 7.04h.213c2.44-.002 4.822.742 6.827 2.134a10.385 10.385 0 016.353-7.344 10.392 10.392 0 019.647 1.114 10.448 10.448 0 017.553-7.912 10.448 10.448 0 0110.473 3.155 9.817 9.817 0 018.54-7.066 9.812 9.812 0 019.679 5.402 9.499 9.499 0 013.289-5.574 9.498 9.498 0 016.098-2.17c5.269 0 9.536 4.224 9.536 9.429 0 5.206-4.267 9.43-9.536 9.43a9.536 9.536 0 01-8.47-5.12 9.84 9.84 0 01-6.887 7.693 9.833 9.833 0 01-9.966-2.701 10.393 10.393 0 01-11.317 7.718 10.396 10.396 0 01-4.619-1.745 10.392 10.392 0 01-5.913 7.41 10.393 10.393 0 01-9.468-.477 11.86 11.86 0 01-11.798 10.176 12.097 12.097 0 011.366 2.326 11.03 11.03 0 0115.189-2.816 10.414 10.414 0 0112.167-6.969 10.403 10.403 0 014.537 2.275 9.814 9.814 0 0118.091-1.216 9.49 9.49 0 019.365-7.722c4.117 0 7.637 2.581 8.96 6.229a9.491 9.491 0 019.493-8.597c5.248 0 9.515 4.224 9.515 9.429s-4.267 9.429-9.515 9.429a9.517 9.517 0 01-8.96-6.25 9.534 9.534 0 01-13.65 7.677 9.53 9.53 0 01-4.312-4.2 9.822 9.822 0 01-6.193 7.481 9.81 9.81 0 01-9.594-1.508 10.412 10.412 0 01-15.424 5.867 11.008 11.008 0 01-12.864 7.765 12.313 12.313 0 01-6.656 13.014 10.492 10.492 0 016.955.384 10.059 10.059 0 011.063-9.35 10.074 10.074 0 018.323-4.389c3.179 0 6.016 1.429 7.872 3.712a9.536 9.536 0 0117.835-2.773 9.495 9.495 0 019.408-8.022c4.181 0 7.744 2.667 9.024 6.4a9.491 9.491 0 019.429-8.17c5.206 0 9.43 4.117 9.515 9.237a8.924 8.924 0 012.711-6.154 8.875 8.875 0 016.228-2.486c4.928 0 8.917 3.947 8.917 8.832a8.89 8.89 0 01-2.629 6.263 8.891 8.891 0 01-6.288 2.569 8.896 8.896 0 01-8.918-8.469v-.342.192a9.475 9.475 0 01-9.536 9.216 9.517 9.517 0 01-9.024-6.4 9.535 9.535 0 01-17.877 3.094 9.537 9.537 0 01-16.64 4.693 10.092 10.092 0 01-13.803 7.893 10.286 10.286 0 01-4.437 12.907 10.229 10.229 0 017.979.96 9.467 9.467 0 011.619-8.258 9.464 9.464 0 017.554-3.71 9.493 9.493 0 018.363 4.949 9.495 9.495 0 019.472-8.469c4.117 0 7.637 2.56 8.96 6.187l.064.192.042-.192a8.902 8.902 0 018.79-7.382c4.949 0 8.938 3.968 8.938 8.832a8.864 8.864 0 01-5.532 8.179 8.859 8.859 0 01-3.406.653 8.913 8.913 0 01-8.406-5.845 9.528 9.528 0 01-7.733 8.102 9.538 9.538 0 01-10.101-4.838 9.495 9.495 0 01-14.08 7.296 10.07 10.07 0 01-9.664 12.949 10.134 10.134 0 01-8.406-4.437 11.187 11.187 0 01-3.029 4.48 10.114 10.114 0 0110.453 7.211 9.2 9.2 0 016.064-6.821 9.189 9.189 0 018.955 1.765 9.182 9.182 0 011.547-8.02 9.183 9.183 0 017.328-3.607 9.247 9.247 0 018.661 5.995 9.172 9.172 0 019.195-8.32 9.172 9.172 0 019.216 9.109 9.183 9.183 0 01-2.717 6.474 9.17 9.17 0 01-6.499 2.657 9.215 9.215 0 01-8.662-5.974 9.252 9.252 0 01-5.74 7.657 9.263 9.263 0 01-9.449-1.513 9.168 9.168 0 01-1.547 8.02 9.183 9.183 0 01-7.328 3.607 9.215 9.215 0 01-8.81-6.4 9.988 9.988 0 01-3.499 5.845 9.823 9.823 0 017.542 2.444 9.821 9.821 0 013.274 7.22 9.833 9.833 0 01-16.171 7.403 11.28 11.28 0 01-1.216 3.776c2.386.531 4.543 1.8 6.166 3.627a9.238 9.238 0 018.533-5.675 9.171 9.171 0 019.237 9.131 9.257 9.257 0 01-15.232 6.933 11.296 11.296 0 01-1.301 3.072 10.68 10.68 0 015.867 6.4 8.323 8.323 0 018.277-7.275c4.608 0 8.32 3.691 8.32 8.235a8.297 8.297 0 01-8.32 8.256 8.315 8.315 0 01-7.765-5.248 10.455 10.455 0 01-1.856 5.355 10.37 10.37 0 019.678 3.727A10.367 10.367 0 01384 462.336a8.986 8.986 0 018.143 1.047 8.986 8.986 0 013.889 7.23 8.889 8.889 0 01-2.629 6.285 8.892 8.892 0 01-6.31 2.569 8.885 8.885 0 01-7.178-3.601 8.879 8.879 0 01-1.334-7.919 10.454 10.454 0 01-14.698-9.387c0-2.133.64-4.096 1.77-5.76a10.668 10.668 0 01-11.306-15.253 11.497 11.497 0 01-7.671-11.383 11.5 11.5 0 011.249-4.703 11.517 11.517 0 01-7.552-16.81 12.376 12.376 0 01-8.17-15.104 12.368 12.368 0 01-6.996-7.694 12.385 12.385 0 011.342-10.312 11.519 11.519 0 01-9.652-11.51 11.522 11.522 0 011.332-5.236 11.52 11.52 0 01-7.04-16.64 11.504 11.504 0 01-7.971-11.661 11.494 11.494 0 011.401-4.83 11.5 11.5 0 01-6.55-16.491 11.493 11.493 0 01-7.144-6.643 11.507 11.507 0 01.531-9.741 11.467 11.467 0 01-6.143-6.843 11.47 11.47 0 01.852-9.157 11.487 11.487 0 01-7.502-7.718 11.5 11.5 0 012.169-10.543 11.519 11.519 0 01-5.76-17.707 8.872 8.872 0 01-8.213-8.81 8.96 8.96 0 0116.576-4.566 11.547 11.547 0 013.242-4.096l.214-.17a10.116 10.116 0 01-9.366-6.742l-.064-.192v.128a8.317 8.317 0 01-8.213 6.806 8.301 8.301 0 01-8.32-8.256 8.316 8.316 0 016.847-8.217 8.323 8.323 0 019.281 5.315 9.89 9.89 0 011.963-4.885 9.82 9.82 0 01-.235-1.707 10.046 10.046 0 01-8.96-9.941c0-2.816 1.216-5.376 3.115-7.211a9.561 9.561 0 01-8.916-.834 9.563 9.563 0 01-4.311-7.848c0-5.206 4.267-9.43 9.536-9.43 5.248 0 9.515 4.224 9.515 9.43a9.347 9.347 0 01-2.838 6.72 10.151 10.151 0 016.208-.598 11.334 11.334 0 011.28-11.477 10.942 10.942 0 01-11.973-9.437 10.935 10.935 0 01.688-5.518 10.137 10.137 0 01-11.219 3.287 10.134 10.134 0 01-6.85-9.473c0-5.547 4.544-10.027 10.133-10.027 1.635.001 3.245.4 4.69 1.163a10.073 10.073 0 014.697 12.533 11.03 11.03 0 0114.186-2.837c.214-2.134 1.067-4.118 2.304-5.76a11.046 11.046 0 01-10.859-.131 11.044 11.044 0 01-5.503-9.363 10.95 10.95 0 018.304-10.6 10.94 10.94 0 014.794-.109 11.355 11.355 0 01-2.389-6.955 11.547 11.547 0 014.264-8.917 11.544 11.544 0 019.603-2.347 11.348 11.348 0 01-1.963-6.4 11.55 11.55 0 014.623-9.233 11.545 11.545 0 0110.161-1.839 11.544 11.544 0 011.495-12.021 11.538 11.538 0 0111.412-4.064 11.83 11.83 0 012.351-9.975 11.838 11.838 0 019.254-4.404zm-87.509 367.488a10.08 10.08 0 018.784 5.141 10.065 10.065 0 01-.187 10.177h.341c5.334 0 9.707 4.074 10.091 9.258a11.521 11.521 0 019.856 11.35 11.532 11.532 0 01-3.433 8.15 11.544 11.544 0 01-8.194 3.327 11.54 11.54 0 01-11.541-12.587 10.016 10.016 0 01-6.266-6.104 10.02 10.02 0 01.911-8.701h-.362a10.072 10.072 0 01-10.112-10.005c0-5.526 4.522-10.006 10.112-10.006zm163.413 31.211c3.925 0 7.125 3.157 7.125 7.061s-3.2 7.062-7.146 7.062a7.11 7.11 0 01-5.029-2.043 7.108 7.108 0 01-2.118-4.997c0-3.926 3.2-7.083 7.147-7.083h.021zm32.128-2.347c3.947 0 7.147 3.158 7.147 7.04 0 3.926-3.2 7.083-7.147 7.083a7.112 7.112 0 01-5.036-2.05 7.114 7.114 0 01-2.111-5.011c0-3.904 3.2-7.062 7.147-7.062zm27.093-5.312c4.096 0 7.424 3.307 7.424 7.36 0 4.054-3.328 7.36-7.445 7.36a7.401 7.401 0 01-7.424-7.36c0-4.053 3.349-7.36 7.445-7.36zm-43.178.598c3.946 0 7.146 3.157 7.146 7.061s-3.2 7.061-7.146 7.061a7.105 7.105 0 01-7.126-7.061c0-3.904 3.2-7.061 7.126-7.061zm-32.128-3.542c4.608 0 8.32 3.691 8.32 8.256a8.3 8.3 0 01-8.32 8.235 8.298 8.298 0 01-8.32-8.235c0-4.565 3.712-8.256 8.32-8.256zm62.784-7.658c4.117 0 7.466 3.306 7.466 7.36 0 4.053-3.349 7.36-7.466 7.36a7.406 7.406 0 01-7.424-7.36c0-4.054 3.328-7.36 7.424-7.36zm-322.838 3.626a12.8 12.8 0 01-1.706 4.352 15.926 15.926 0 013.733 4.096 15.768 15.768 0 011.621-2.133 12.913 12.913 0 01-3.648-6.315zm271.958-8.32c4.608 0 8.32 3.67 8.32 8.235a8.298 8.298 0 01-8.32 8.235 8.297 8.297 0 01-8.32-8.235c0-4.565 3.712-8.235 8.32-8.235zM265.685 407.04c4.416 0 8.022 3.563 8.022 7.957a7.888 7.888 0 01-2.987 6.187 8.297 8.297 0 018.195 6.842 8.308 8.308 0 01-.216 3.825 9.25 9.25 0 019.419-.462 9.255 9.255 0 014.938 8.035 9.172 9.172 0 01-9.237 9.131 9.178 9.178 0 01-9.089-7.82 9.18 9.18 0 01.385-4.298 8.362 8.362 0 01-12.715-7.018 8.134 8.134 0 013.179-6.464 8.002 8.002 0 01-7.936-7.958c0-4.394 3.584-7.957 8.021-7.957h.021zm-156.181 31.061l-.043.043a14.557 14.557 0 01-3.904 4.011 14.41 14.41 0 016.443 6.314c.179-.218.364-.431.555-.64a12.796 12.796 0 01-3.051-9.728zm332.651-5.141c4.117 0 7.445 3.285 7.445 7.36 0 4.053-3.328 7.36-7.445 7.36a7.391 7.391 0 01-5.247-2.138 7.385 7.385 0 01-2.199-5.222c0-4.053 3.307-7.36 7.446-7.36zm-16.363-2.944c4.608 0 8.32 3.691 8.32 8.235a8.301 8.301 0 01-8.32 8.256 8.301 8.301 0 01-8.32-8.256c0-4.544 3.712-8.235 8.32-8.235zm42.24-12.373a7.678 7.678 0 017.701 8.512 8.344 8.344 0 0113.346.214 8.345 8.345 0 011.588 4.82 8.302 8.302 0 01-8.32 8.235 8.297 8.297 0 01-7.968-5.837 8.307 8.307 0 01-.31-3.486 7.738 7.738 0 01-8.567 2.436 7.746 7.746 0 01-5.193-7.236 7.69 7.69 0 012.28-5.439 7.68 7.68 0 015.464-2.219h-.021zm-331.819 4.608a12.134 12.134 0 01-5.76 6.869c2.347 1.792 4.096 4.331 4.8 7.275a12.89 12.89 0 013.648-6.763 11.954 11.954 0 01-2.688-7.019v-.362zm259.2-6.379c4.63 0 8.342 3.691 8.342 8.256a8.298 8.298 0 01-8.32 8.235 8.297 8.297 0 01-8.32-8.235c0-4.565 3.69-8.256 8.298-8.256zM96.939 412.16a14.698 14.698 0 01-.363 3.755h.661a14.512 14.512 0 0110.901 4.863 14.51 14.51 0 013.563 11.393 13.102 13.102 0 015.099-4.352 11.984 11.984 0 01-3.989-12.331 12.248 12.248 0 01-15.872-3.328zm353.28.213c4.586 0 8.32 3.691 8.32 8.235a8.302 8.302 0 01-8.32 8.256 8.296 8.296 0 01-8.32-8.256c0-4.544 3.712-8.235 8.32-8.235zm-19.051-2.346c4.608 0 8.32 3.669 8.32 8.234a8.3 8.3 0 01-8.32 8.235 8.296 8.296 0 01-8.32-8.235c0-4.565 3.712-8.234 8.32-8.234zm-19.627-1.195c4.587 0 8.32 3.691 8.32 8.256a8.297 8.297 0 01-8.32 8.235 8.3 8.3 0 01-8.341-8.235c0-4.565 3.733-8.256 8.341-8.256zm-166.976-2.347c5.248 0 9.515 4.203 9.515 9.408 0 5.206-4.267 9.43-9.515 9.43a9.473 9.473 0 01-9.536-9.43c0-5.205 4.267-9.408 9.536-9.408zm45.824 1.174a6.825 6.825 0 016.848 6.762 6.824 6.824 0 01-6.826 6.784 6.815 6.815 0 01-4.84-1.969 6.837 6.837 0 01-2.03-4.815 6.827 6.827 0 016.848-6.762zm112.512-18.838c4.758 0 8.619 3.819 8.619 8.534a8.641 8.641 0 01-15.104 5.653 9.172 9.172 0 01-9.003 11.136 9.161 9.161 0 01-6.499-2.657 9.162 9.162 0 01-2.717-6.474 9.237 9.237 0 0116.256-5.909 8.585 8.585 0 014.76-9.47 8.594 8.594 0 013.688-.813zm78.571 6.464c4.437 0 8.021 3.563 8.021 7.958a7.998 7.998 0 01-8.021 7.957 7.991 7.991 0 01-5.669-2.313 8 8 0 01-2.374-5.644c0-4.395 3.606-7.958 8.043-7.958zm-346.453-7.658a10.662 10.662 0 0110.709 10.602 10.667 10.667 0 01-10.709 10.603 10.667 10.667 0 01-10.71-10.603 10.667 10.667 0 0110.71-10.602zm139.584 7.082a6.828 6.828 0 016.826 6.763 6.826 6.826 0 01-6.826 6.784 6.823 6.823 0 01-6.848-6.784 6.827 6.827 0 012.022-4.786 6.877 6.877 0 014.826-1.977zm186.602-3.541c4.438 0 8.043 3.563 8.043 7.957a8 8 0 01-8.043 7.936 7.997 7.997 0 01-8.042-7.936c0-4.394 3.605-7.957 8.042-7.957zm-208.917-2.347c4.587 0 8.32 3.691 8.32 8.235a8.298 8.298 0 01-8.32 8.235 8.3 8.3 0 01-8.341-8.235c0-4.544 3.733-8.235 8.32-8.235h.021zm-162.347 4.48a14.466 14.466 0 01-3.861 5.419 14.594 14.594 0 018.47 6.037 12.03 12.03 0 015.482-9.834 13.235 13.235 0 01-10.09-1.643v.021zm351.019-4.48c4.437 0 8.043 3.542 8.043 7.936a7.998 7.998 0 01-4.978 7.365 8.01 8.01 0 01-3.065.593 8.004 8.004 0 01-8.021-7.958c0-4.394 3.584-7.936 8.021-7.936zm-19.627-1.194c4.758 0 8.619 3.84 8.619 8.533 0 4.736-3.861 8.533-8.619 8.533a8.559 8.559 0 01-6.09-2.474 8.577 8.577 0 01-2.55-6.059c0-4.693 3.862-8.533 8.64-8.533zm-64.981 8.362l-.021.128a12.243 12.243 0 01-1.579 3.499 11.157 11.157 0 014.011 2.645 9.683 9.683 0 013.242-5.269 10.233 10.233 0 01-5.653-1.003zm-68.651-7.765c3.627 0 6.55 2.901 6.55 6.485a6.516 6.516 0 01-1.936 4.589 6.5 6.5 0 01-4.614 1.875 6.498 6.498 0 01-4.613-1.875 6.508 6.508 0 01-1.936-4.589c0-3.584 2.923-6.485 6.549-6.485zm-70.826-10.603c4.757 0 8.618 3.84 8.618 8.534 0 4.714-3.861 8.533-8.618 8.533a8.585 8.585 0 01-7.969-5.25 8.55 8.55 0 01-.671-3.283c0-4.694 3.861-8.534 8.64-8.534zm21.12.598c4.608 0 8.32 3.69 8.32 8.234a8.299 8.299 0 01-8.32 8.256 8.296 8.296 0 01-8.32-8.256c0-4.544 3.712-8.234 8.32-8.234zm27.37-1.174c4.267 0 7.744 3.414 7.744 7.638a7.68 7.68 0 01-7.744 7.68 7.683 7.683 0 01-7.722-7.68 7.67 7.67 0 014.78-7.069 7.689 7.689 0 012.942-.569zm-110.4-2.944a9.173 9.173 0 019.216 9.11 9.167 9.167 0 01-5.702 8.448 9.162 9.162 0 01-3.514.682 9.174 9.174 0 01-8.52-5.618 9.172 9.172 0 01-.717-3.512 9.163 9.163 0 012.732-6.468 9.173 9.173 0 016.505-2.642zm-33.642-2.965a10.67 10.67 0 0110.73 10.603 10.658 10.658 0 01-3.169 7.523 10.654 10.654 0 01-7.561 3.079 10.663 10.663 0 01-10.71-10.602 10.667 10.667 0 0110.71-10.603zm349.994-2.347c4.779 0 8.64 3.84 8.64 8.534 0 4.714-3.861 8.533-8.64 8.533a8.573 8.573 0 01-7.949-5.255 8.564 8.564 0 01-.669-3.278c0-4.694 3.84-8.534 8.618-8.534zm-191.36 4.118c3.286 0 5.952 2.645 5.952 5.888a5.93 5.93 0 01-5.952 5.888 5.933 5.933 0 01-5.952-5.888c0-3.243 2.667-5.888 5.952-5.888zm171.136-5.888c4.758 0 8.619 3.84 8.619 8.533 0 4.736-3.861 8.533-8.619 8.533a8.559 8.559 0 01-6.09-2.474 8.577 8.577 0 01-2.55-6.059c0-4.693 3.862-8.533 8.64-8.533zm-101.568 12.544a12.07 12.07 0 01-.384 1.984c.896.384 1.75.853 2.518 1.429a10.027 10.027 0 012.133-3.072 11.418 11.418 0 01-4.267-.341zm81.92-14.294c4.758 0 8.619 3.819 8.619 8.534 0 4.693-3.84 8.533-8.619 8.533a8.59 8.59 0 01-6.09-2.474 8.581 8.581 0 01-2.55-6.059c0-4.715 3.862-8.534 8.64-8.534zm-177.984 0c4.267 0 7.744 3.414 7.744 7.638a7.68 7.68 0 01-7.744 7.68 7.683 7.683 0 01-7.722-7.68 7.681 7.681 0 014.775-7.089 7.673 7.673 0 012.947-.549zm-112.192-5.909a9.176 9.176 0 019.238 9.131 9.172 9.172 0 01-9.238 9.13 9.161 9.161 0 01-3.513-.682 9.152 9.152 0 01-4.988-4.941 9.187 9.187 0 01-.715-3.507 9.188 9.188 0 012.717-6.474 9.17 9.17 0 016.499-2.657zm93.739 1.771c4.267 0 7.744 3.413 7.744 7.68a7.675 7.675 0 01-2.287 5.425 7.68 7.68 0 01-5.457 2.212 7.674 7.674 0 01-5.451-2.227 7.681 7.681 0 01-2.272-5.432 7.681 7.681 0 017.723-7.658zm-20.224-.576c4.267 0 7.744 3.413 7.744 7.637a7.68 7.68 0 01-7.744 7.68 7.68 7.68 0 01-7.744-7.68 7.68 7.68 0 017.744-7.637zm-19.051 0c4.267 0 7.744 3.413 7.744 7.637a7.68 7.68 0 01-7.744 7.68 7.687 7.687 0 01-5.472-2.227 7.677 7.677 0 01-2.272-5.453 7.7 7.7 0 01.603-2.941 7.682 7.682 0 017.141-4.696zm-19.626-.598c4.266 0 7.722 3.414 7.722 7.659a7.666 7.666 0 01-2.279 5.44 7.697 7.697 0 01-5.465 2.219 7.683 7.683 0 01-7.722-7.68 7.67 7.67 0 014.78-7.069 7.689 7.689 0 012.942-.569h.022zm91.946-.597c3.286 0 5.952 2.645 5.952 5.888a5.932 5.932 0 01-5.952 5.888 5.932 5.932 0 01-5.952-5.888c0-3.243 2.667-5.888 5.952-5.888zm-106.24-11.179c4.267 0 7.723 3.414 7.723 7.659a7.681 7.681 0 01-7.723 7.659 7.687 7.687 0 01-5.472-2.227 7.677 7.677 0 01-2.272-5.453 7.695 7.695 0 012.287-5.426 7.685 7.685 0 015.457-2.212zm194.688 7.851l-.064.107a10.366 10.366 0 01-1.322 1.749 11.3 11.3 0 017.189 5.205 10.094 10.094 0 014.267-4.736 10.52 10.52 0 01-10.07-2.325zm-103.914-6.08c3.285 0 5.952 2.624 5.952 5.888a5.939 5.939 0 01-1.768 4.181 5.918 5.918 0 01-4.206 1.707 5.93 5.93 0 01-5.93-5.888c0-3.264 2.645-5.888 5.952-5.888zm207.722-7.061c4.928 0 8.939 3.946 8.939 8.832a8.875 8.875 0 01-8.939 8.832 8.883 8.883 0 01-8.225-5.439 8.89 8.89 0 01-.692-3.393c0-4.907 3.989-8.832 8.917-8.832zm-19.626-1.195c4.906 0 8.917 3.968 8.917 8.832a8.875 8.875 0 01-8.939 8.832 8.864 8.864 0 01-6.288-2.569 8.866 8.866 0 01-2.629-6.263c0-4.864 4.011-8.832 8.939-8.832zm-241.686 3.541c3.307 0 5.974 2.646 5.974 5.888a5.917 5.917 0 01-1.768 4.181 5.918 5.918 0 01-4.206 1.707 5.928 5.928 0 01-5.952-5.888c0-3.242 2.667-5.888 5.974-5.888h-.022zm35.734 0c3.285 0 5.952 2.646 5.952 5.888a5.917 5.917 0 01-1.768 4.181 5.918 5.918 0 01-4.206 1.707 5.93 5.93 0 01-5.93-5.888c0-3.242 2.645-5.888 5.952-5.888zm-17.856 0c3.285 0 5.952 2.646 5.952 5.888a5.917 5.917 0 01-1.768 4.181 5.918 5.918 0 01-4.206 1.707 5.928 5.928 0 01-5.952-5.888c0-3.242 2.667-5.888 5.974-5.888zm-33.92-6.485c3.264 0 5.93 2.645 5.93 5.888a5.932 5.932 0 01-5.952 5.888 5.932 5.932 0 01-5.952-5.888c0-3.243 2.667-5.888 5.974-5.888zm167.104.213v.064a10.176 10.176 0 01-.47 1.707c1.92.384 3.627 1.28 5.014 2.539a10.399 10.399 0 014.096-3.904c-2.841.881-5.901.73-8.64-.427v.021zm-165.931-17.28c3.285 0 5.952 2.624 5.952 5.888a5.948 5.948 0 01-1.767 4.182 5.922 5.922 0 01-4.206 1.706 5.931 5.931 0 01-5.931-5.888c0-3.264 2.667-5.888 5.952-5.888zm7.147-16.49c3.285 0 5.952 2.624 5.952 5.888a5.939 5.939 0 01-1.767 4.181 5.933 5.933 0 01-4.207 1.707 5.93 5.93 0 01-5.93-5.888c0-3.264 2.666-5.888 5.952-5.888zm-83.264-1.771c-.337.374-.693.73-1.067 1.067 2.923.768 5.44 2.56 7.168 4.906a11.044 11.044 0 012.688-2.432 12.814 12.814 0 01-8.789-3.541zm90.41-14.72c3.286 0 5.952 2.645 5.952 5.888a5.92 5.92 0 01-1.767 4.181 5.928 5.928 0 01-4.206 1.707 5.931 5.931 0 01-5.931-5.888c0-3.243 2.646-5.888 5.952-5.888zm7.424-16.491c3.456 0 6.251 2.774 6.251 6.187 0 3.413-2.773 6.187-6.251 6.187a6.206 6.206 0 01-5.768-3.808 6.207 6.207 0 01-.482-2.379c0-3.413 2.816-6.187 6.25-6.187zm-11.904-12.373c4.267 0 7.744 3.435 7.744 7.68a7.669 7.669 0 01-4.795 7.075 7.657 7.657 0 01-2.949.562 7.674 7.674 0 01-5.45-2.226 7.683 7.683 0 01-2.272-5.432 7.681 7.681 0 014.775-7.089 7.674 7.674 0 012.947-.57zm19.947-4.117c3.627 0 6.549 2.901 6.549 6.485a6.504 6.504 0 01-6.549 6.464 6.494 6.494 0 01-4.613-1.876 6.49 6.49 0 01-1.936-4.588c0-3.584 2.922-6.485 6.549-6.485zm-12.203-13.547c4.267 0 7.744 3.435 7.744 7.68a7.669 7.669 0 01-4.795 7.075 7.657 7.657 0 01-2.949.562 7.68 7.68 0 01-7.744-7.658 7.694 7.694 0 012.28-5.44 7.68 7.68 0 015.464-2.219zm19.051-2.944a6.826 6.826 0 016.827 6.784 6.831 6.831 0 01-6.827 6.763 6.83 6.83 0 01-6.848-6.763 6.823 6.823 0 016.827-6.784h.021zm-11.605-14.72c4.437 0 8.021 3.563 8.021 7.957a7.999 7.999 0 01-8.021 7.958 8.01 8.01 0 01-5.67-2.313 8 8 0 01-2.373-5.645c0-4.394 3.605-7.957 8.043-7.957zm18.752-1.771a6.827 6.827 0 016.826 6.784 6.823 6.823 0 01-6.826 6.763 6.825 6.825 0 01-6.848-6.763 6.824 6.824 0 016.826-6.784h.022zm-103.296-44.757c4.629 0 8.704 2.304 11.093 5.845a12.907 12.907 0 0115.36 6.678 11.968 11.968 0 0115.36 6.954 10.807 10.807 0 019.575 1.137 10.799 10.799 0 014.846 8.335 9.82 9.82 0 0110.411 5.504 8.94 8.94 0 0116.981 3.819 8.936 8.936 0 01-12.625 8.064 8.947 8.947 0 01-4.228-3.989 9.82 9.82 0 01-9.045 5.93 9.79 9.79 0 01-9.75-8.533 10.878 10.878 0 01-12.074-5.632 11.95 11.95 0 01-15.574-4.693 12.866 12.866 0 01-15.616-3.776 13.31 13.31 0 01-18.112-12.395c0-7.317 5.995-13.248 13.398-13.248zm92.842 28.843c4.438 0 8.043 3.562 8.043 7.957a8 8 0 01-8.043 7.936 8 8 0 01-8.021-7.936c0-4.395 3.584-7.957 8.021-7.957zm124.16 5.056l-.17.042a12.376 12.376 0 01-3.35.15 12.934 12.934 0 01-5.44 8.341 12.918 12.918 0 013.883.235 11.737 11.737 0 015.056-8.747l.021-.021zm-106.304-5.632c3.947 0 7.147 3.157 7.147 7.04 0 3.925-3.2 7.082-7.147 7.082a7.102 7.102 0 01-7.125-7.061c0-3.904 3.2-7.061 7.125-7.061zm-98.752-54.784c5.163 0 9.643 2.901 11.883 7.125a12.802 12.802 0 0113.312 8.469 11.279 11.279 0 018.6 1.487 11.292 11.292 0 014.968 7.175 10.77 10.77 0 0113.213 4.982 10.778 10.778 0 011.294 4.916c0 .448-.022.875-.086 1.302a9.81 9.81 0 0110.752 6.144 8.961 8.961 0 0114.779-1.048 8.959 8.959 0 011.925 5.378 8.937 8.937 0 01-17.13 3.499 9.813 9.813 0 01-18.56-4.928 10.686 10.686 0 01-12.8-7.723 11.368 11.368 0 01-14.55-5.184 12.886 12.886 0 01-15.424-5.269 13.307 13.307 0 01-14.318-7.476 13.308 13.308 0 01-1.255-5.601c0-7.318 5.995-13.248 13.397-13.248zm89.28 37.696c4.438 0 8.043 3.562 8.043 7.957a8 8 0 01-8.043 7.936 8.005 8.005 0 01-5.662-2.305 8.004 8.004 0 01-2.38-5.631c0-4.395 3.605-7.957 8.042-7.957zm18.155.597c4.117 0 7.445 3.285 7.445 7.36 0 4.053-3.328 7.36-7.445 7.36a7.391 7.391 0 01-5.247-2.138 7.397 7.397 0 01-2.198-5.222c0-4.053 3.328-7.36 7.445-7.36zm16.661-1.195c4.118 0 7.446 3.307 7.446 7.36 0 4.075-3.328 7.36-7.446 7.36a7.391 7.391 0 01-5.247-2.138 7.398 7.398 0 01-2.198-5.222c0-4.053 3.349-7.36 7.467-7.36h-.022zm73.28.619l-.106.021a11.713 11.713 0 01-3.264.534 11.924 11.924 0 01-.363 2.197 12.23 12.23 0 013.733-2.773v.021zm-99.754-17.707c4.437 0 8.021 3.584 8.021 7.979a8 8 0 01-8.021 7.936 8.003 8.003 0 01-8.043-7.936c0-4.395 3.605-7.979 8.043-7.979zm-87.531-45.312a12.805 12.805 0 0111.861 7.894 12.775 12.775 0 0114.955 9.813 11.261 11.261 0 0112.075 9.664 10.66 10.66 0 019.812 2.593 10.672 10.672 0 013.201 9.631h.171a9.813 9.813 0 0110.73 6.251 8.958 8.958 0 0113.846 1.014 8.968 8.968 0 011.621 4.959 8.934 8.934 0 01-2.043 5.584 8.935 8.935 0 01-10.985 2.261 8.941 8.941 0 01-4.081-4.325 9.84 9.84 0 01-11.387 2.775 9.832 9.832 0 01-5.957-10.092c-1.407.34-2.869.39-4.296.148a10.668 10.668 0 01-8.696-8.554 11.414 11.414 0 01-13.782-6.933 12.8 12.8 0 01-14.613-7.595 12.724 12.724 0 01-10.551-2.624 12.727 12.727 0 01-4.681-9.813c0-6.976 5.739-12.651 12.8-12.651zm104.171 37.12c4.437 0 8.042 3.542 8.042 7.936a7.997 7.997 0 01-8.042 7.958 8.01 8.01 0 01-5.67-2.313 8 8 0 01-2.373-5.645c0-4.394 3.605-7.936 8.043-7.936zM157.931 100.8a12.798 12.798 0 0112.224 8.875 12.212 12.212 0 019.084 3.139 12.21 12.21 0 013.993 8.743 11.284 11.284 0 014.545.18 11.263 11.263 0 018.49 9.719l.64-.021a10.66 10.66 0 018.734 4.511 10.666 10.666 0 011.335 9.739 9.776 9.776 0 0111.264 10.944 8.933 8.933 0 0110.023-4.352 8.94 8.94 0 016.745 8.598 8.89 8.89 0 01-2.629 6.263 8.872 8.872 0 01-6.288 2.569 8.882 8.882 0 01-6.653-2.959 8.857 8.857 0 01-1.845-3.234 8.891 8.891 0 01-.356-3.706 9.813 9.813 0 01-18.09-7.403 10.807 10.807 0 01-11.224-4.704 10.812 10.812 0 01-1.576-3.978 11.269 11.269 0 01-11.323-5.923 11.255 11.255 0 01-1.264-4.317 12.335 12.335 0 01-14.123-7.467 12.743 12.743 0 01-10.101-2.978 12.733 12.733 0 01-4.405-9.566c0-6.997 5.738-12.672 12.8-12.672zm152.106 56.469l-.149.128a17.02 17.02 0 01-1.664 1.28l1.301.726h.854a7.928 7.928 0 01-.363-2.134h.021zm-66.389-17.002a9.17 9.17 0 019.237 9.13 9.176 9.176 0 01-2.724 6.482 9.163 9.163 0 01-6.513 2.649 9.162 9.162 0 01-6.499-2.657 9.162 9.162 0 01-2.717-6.474 9.168 9.168 0 012.717-6.474 9.162 9.162 0 016.499-2.656zM169.237 75.52c6.187 0 11.307 4.31 12.544 10.048a12.138 12.138 0 0113.27 13.61 10.944 10.944 0 0112.48 12.417 10.668 10.668 0 0112.629 10.432 10.467 10.467 0 01-2.027 6.186 9.858 9.858 0 0113.91 8.832 9.782 9.782 0 01-2.892 6.897 9.781 9.781 0 01-6.922 2.831 9.76 9.76 0 01-6.921-2.831 9.784 9.784 0 01-2.892-6.897 9.595 9.595 0 011.707-5.482 10.756 10.756 0 01-14.458-5.33 10.75 10.75 0 01-.86-5.593 10.943 10.943 0 01-13.162-11.264 12.306 12.306 0 01-14.507-8.683 12.724 12.724 0 01-10.222-2.889 12.738 12.738 0 01-4.477-9.633c0-6.998 5.76-12.651 12.8-12.651zm72.32 41.216c5.59 0 10.134 4.48 10.134 10.005 0 5.547-4.544 10.027-10.134 10.027a10.058 10.058 0 01-7.132-2.919 10.063 10.063 0 01-2.98-7.108c0-5.546 4.523-10.005 10.112-10.005zm22.038-1.771a10.668 10.668 0 0110.709 10.603 10.667 10.667 0 01-10.709 10.603 10.668 10.668 0 01-10.71-10.603 10.667 10.667 0 0110.71-10.603zm-78.294-63.018a12.733 12.733 0 0112.083 8.487c.585 1.656.823 3.414.696 5.166a12.14 12.14 0 0113.553 10.117 12.13 12.13 0 01-.604 6.139 11.244 11.244 0 0114.486 10.752 11.059 11.059 0 01-1.92 6.187 10.748 10.748 0 0110.713-.098 10.758 10.758 0 015.479 9.207 10.674 10.674 0 01-6.644 9.815 10.66 10.66 0 01-4.087.788 10.666 10.666 0 01-10.709-10.603c0-2.133.64-4.096 1.706-5.76a11.35 11.35 0 01-17.173-9.557c0-1.238.213-2.432.576-3.563a12.138 12.138 0 01-16.043-11.925 12.734 12.734 0 01-14.89-12.502c0-6.976 5.717-12.65 12.8-12.65h-.022zm129.494-12.95c6.549 0 11.882 5.27 11.882 11.776a11.833 11.833 0 01-5.739 10.14 11.841 11.841 0 01-11.647.314 11.325 11.325 0 011.92 6.336 11.547 11.547 0 01-4.797 9.331 11.542 11.542 0 01-10.371 1.591 11.367 11.367 0 012.666 7.339 11.544 11.544 0 01-4.763 9.3 11.54 11.54 0 01-10.319 1.644c2.325 2.112 3.776 5.12 3.776 8.491a11.542 11.542 0 01-11.606 11.477 11.551 11.551 0 01-8.179-3.335 11.542 11.542 0 01-3.426-8.142 11.545 11.545 0 014.755-9.316 11.54 11.54 0 0110.328-1.65 11.386 11.386 0 01-3.776-8.469 11.542 11.542 0 0115.146-10.944A11.37 11.37 0 01288 67.563a11.538 11.538 0 015.559-9.887 11.544 11.544 0 0111.337-.353 11.631 11.631 0 01-2.027-6.55c0-6.506 5.355-11.776 11.926-11.776zm-62.806 52.416c6.08 0 11.008 4.864 11.008 10.88 0 6.038-4.928 10.902-11.008 10.902a10.944 10.944 0 01-11.029-10.88c0-6.038 4.949-10.902 11.029-10.902zM207.936 34.88a12.138 12.138 0 0110.88 17.557 12.14 12.14 0 0115.616 11.584 11.943 11.943 0 01-2.603 7.424 11.651 11.651 0 0115.337 4.622 11.655 11.655 0 011.538 5.618 11.54 11.54 0 01-11.605 11.499 11.544 11.544 0 01-11.606-11.499c0-2.602.896-5.034 2.39-6.954A12.245 12.245 0 01210.027 64c0-1.963.469-3.84 1.322-5.483a12.137 12.137 0 01-15.616-11.584c0-6.677 5.462-12.074 12.203-12.074v.021zm54.763 32.981c6.4 0 11.605 5.12 11.605 11.478a11.53 11.53 0 01-3.426 8.142 11.527 11.527 0 01-8.179 3.335 11.545 11.545 0 01-10.703-7.066 11.567 11.567 0 01-.903-4.411c0-6.336 5.184-11.478 11.606-11.478zm12.202-21.802c6.571 0 11.904 5.29 11.904 11.776 0 6.506-5.333 11.776-11.904 11.776a11.84 11.84 0 01-11.904-11.776c0-6.486 5.334-11.776 11.904-11.776zm-26.794-1.174c6.57 0 11.904 5.27 11.904 11.776 0 6.507-5.334 11.776-11.904 11.776a11.84 11.84 0 01-11.904-11.776c0-6.506 5.333-11.776 11.904-11.776zm41.066-18.837c6.592 0 11.926 5.27 11.926 11.776 0 6.507-5.334 11.776-11.926 11.776a11.842 11.842 0 01-11.904-11.776c0-6.507 5.334-11.776 11.904-11.776zm-55.637-1.77c6.741 0 12.203 5.397 12.203 12.074a12.146 12.146 0 01-7.553 11.175 12.138 12.138 0 01-4.65.9 12.138 12.138 0 01-12.203-12.075c0-6.677 5.462-12.075 12.203-12.075zm28.267-2.945c6.57 0 11.904 5.27 11.904 11.776 0 6.507-5.334 11.776-11.904 11.776a11.839 11.839 0 01-11.904-11.776c0-6.506 5.333-11.776 11.904-11.776z" fill="#EB1000"/></svg>